<svg xmlns="http://www.w3.org/2000/svg" width="148" height="21" fill="none">
  <path fill="#111029" d="m21.568 15.15.023-.763c.015-.48.06-1.003.134-1.572l.18-1.325.113-.853-1.718 1.819-1.291 1.256c-2.889 2.701-4.609 4.053-5.163 4.053-.816 0-1.673-.177-2.57-.528-.487-.194-.764-.397-.83-.607-.106-.261-.158-.616-.158-1.066l.045-1.257.112-1.133.134-1.09.124-.92c.075-.592.09-.887.045-.887l-4.176 5.13-3.356 3.839c-.576.524-1.212.785-1.908.785-.345 0-.629-.085-.853-.258a.78.78 0 0 1-.338-.64c0-.51.214-1.04.64-1.593l9.968-12.671 1.167-1.404c1.392-1.637 2.305-2.457 2.74-2.457.606 0 1.182.153 1.728.46.487.27.764.531.83.785.03.097-.033.55-.19 1.358l-.393 2.121-.663 4.58c0 .68.08 1.021.236 1.021.509 0 1.49-.834 2.941-2.503l3.637-4.355c.801-.92 1.332-1.444 1.594-1.57a.758.758 0 0 1 .326-.057c.159.002.316.021.471.057.182.038.362.086.539.145.187.06.367.132.539.213.172.082.326.169.46.258.292.195.434.355.426.483 0 .12-.03.386-.09.797L26.8 6.282l-.977 6.734c-.023.621.041 1.01.19 1.168.157.157.386.236.685.236.547 0 1.34-.326 2.38-.977.703-.442 1.282-.662 1.738-.662.464 0 .696.221.696.662 0 .456-.246 1.01-.74 1.661-.712.943-1.774 1.796-3.188 2.56-1.19.636-2.319.953-3.39.953-1.75 0-2.626-1.155-2.626-3.468l.001.001Zm22.202-4.186c0 .404.345.607 1.033.607.508 0 1.175-.247 1.997-.741l.898-.494c.277-.157.516-.236.72-.236.209 0 .373.063.493.19.12.126.18.303.18.527 0 .225-.075.487-.224.786-.174.33-.381.642-.617.93a8.38 8.38 0 0 1-2.055 1.82c-.898.561-1.732.84-2.503.84-.816 0-1.467-.137-1.953-.414l-.438-.281c-.8.913-1.96 1.75-3.48 2.514-1.616.809-3.026 1.212-4.232 1.212-1.264 0-2.264-.498-2.997-1.493-.591-.808-.886-1.627-.886-2.458 0-1.197.64-2.338 1.92-3.424.942-.793 1.85-1.396 2.727-1.807a20.051 20.051 0 0 1 2.39-.954c1.505-.471 2.859-.707 4.064-.707.539 0 1.018.104 1.437.314.426.202.74.407.942.617.48.47.72 1.074.72 1.807 0 .217-.024.385-.068.505a.972.972 0 0 0-.068.338v.002Zm-9.18 2.121-.012.033v.012c0 .322.071.531.213.628a1.366 1.366 0 0 0 1.09.169 8.164 8.164 0 0 0 1.088-.382 9.694 9.694 0 0 0 2.313-1.392 1.634 1.634 0 0 1-.18-.74c0-.54.237-1.078.708-1.617-.6 0-1.408.28-2.424.841-1.123.62-1.964 1.26-2.525 1.92-.18.224-.27.4-.27.527l-.002.001Zm25.815-3.131c.479 0 .719.198.719.595 0 .487-.293 1.066-.876 1.74a26.558 26.558 0 0 1-3.412 3.276c-2.133 1.707-4.037 2.56-5.714 2.56-1.204 0-2.193-.524-2.963-1.573-.8-1.091-1.2-2.559-1.2-4.399 0-2.417 1.178-5.088 3.535-8.013 1.495-1.864 2.905-3.128 4.23-3.795.412-.209.726-.314.943-.314.225 0 .426.037.606.113.187.067.36.164.516.292.367.307.55.677.55 1.111 0 .434-.12.95-.358 1.55-.28.666-.63 1.302-1.043 1.896-.966 1.429-2.27 2.798-3.917 4.108-.427.816-.64 1.795-.64 2.941 0 .516.165 1.002.494 1.46.337.456.708.684 1.111.684.555 0 1.613-.572 3.176-1.717l1.999-1.538c.816-.651 1.564-.977 2.245-.977h-.001Zm17.341-.37c.337 0 .504.172.504.516 0 .546-.358 1.316-1.077 2.312-.502.696-1.534 1.662-3.099 2.897-1.863 1.46-3.36 2.189-4.49 2.189-.853 0-1.496-.36-1.93-1.078-.262-.435-.476-1.07-.64-1.908l-1 .719c-2.745 1.9-4.796 2.85-6.15 2.85-1.13 0-2.035-.411-2.716-1.235-.599-.74-.897-1.627-.897-2.66 0-1.138.39-2.036 1.167-2.693 1.586-1.332 3.558-2.428 5.915-3.289.958-.35 1.564-.527 1.819-.527a1.75 1.75 0 0 1 .696.134c.217.082.43.19.64.326.494.337.74.663.74.977 0 .254-.157.46-.471.616-.16.08-.326.152-.494.214l-.853.37c-.906.427-1.788.943-2.649 1.55-.614.523-.92.942-.92 1.256 0 .306.216.46.65.46.36 0 1.078-.318 2.156-.954l.954-.584c.68-.427 1.227-.816 1.639-1.167l.516-1.683c.635-2.005 1.343-3.663 2.12-4.973C71.254 1.576 72.639.256 74.03.256c.508 0 .913.093 1.212.281.539.337.808.711.808 1.123 0 .403-.075.833-.225 1.29-.156.47-.355.925-.595 1.358-.239.45-.516.894-.83 1.336L72.48 8.18l-.852 1.2c-.435.935-.652 1.736-.652 2.403 0 .958.348 1.436 1.044 1.436.396 0 1.11-.415 2.144-1.246l1.324-1.123c.62-.554 1.235-.942 1.84-1.167.132-.058.272-.092.415-.1h.003Zm9.933 1.38c0 .404.345.607 1.033.607.508 0 1.175-.247 1.997-.741l.898-.494c.277-.157.516-.236.72-.236.209 0 .373.063.493.19.12.126.18.303.18.527 0 .225-.075.487-.224.786-.174.33-.381.642-.617.93a8.383 8.383 0 0 1-2.055 1.82c-.898.561-1.732.84-2.503.84-.816 0-1.466-.137-1.953-.414l-.438-.281c-.8.913-1.96 1.75-3.48 2.514-1.616.809-3.026 1.212-4.23 1.212-1.265 0-2.263-.498-2.998-1.493-.591-.808-.886-1.627-.886-2.458 0-1.197.64-2.338 1.92-3.424.942-.793 1.851-1.396 2.727-1.807a20.053 20.053 0 0 1 2.39-.954c1.505-.471 2.859-.707 4.064-.707.54 0 1.018.104 1.437.314.427.202.74.407.943.617.479.47.719 1.074.719 1.807 0 .217-.023.385-.068.505a.972.972 0 0 0-.068.338l-.001.002Zm-9.18 2.121-.012.033v.012c0 .322.071.531.213.628a1.366 1.366 0 0 0 1.088.169 8.093 8.093 0 0 0 1.088-.382 9.695 9.695 0 0 0 2.313-1.392 1.637 1.637 0 0 1-.18-.74c0-.54.235-1.078.707-1.617-.599 0-1.407.28-2.424.841-1.122.62-1.964 1.26-2.526 1.92-.18.224-.27.4-.27.527l.002.001Zm27.027 1.37c-.365.19-.749.34-1.146.449-.426.112-.946.168-1.56.168-.607 0-1.272-.209-1.998-.628-1.1.966-2.091 1.714-2.974 2.245-1.549.927-2.608 1.392-3.176 1.392-.98 0-1.766-.16-2.357-.482-1.392-.786-2.088-2.324-2.088-4.613 0-1.348.37-2.608 1.11-3.783.532-.845 1.236-1.452 2.11-1.818.442-.187.861-.281 1.257-.281.327-.005.654.017.977.067.262.037.502.097.719.18.502.187.752.427.752.72 0 .344-.12.672-.359.986l-.628.764-.516.56c-.419.443-.677.76-.774.955-.152.319-.23.668-.225 1.021 0 .367.034.663.101.887.068.217.157.415.27.595.24.403.483.606.729.606.345 0 1.074-.508 2.189-1.526l.987-.909a2.593 2.593 0 0 1-.045-.506c0-.186.053-.415.157-.684.118-.296.261-.581.427-.853.186-.3.403-.6.651-.898.254-.299.524-.572.809-.82.636-.539 1.238-.808 1.807-.808 1.01 0 1.515.527 1.515 1.582 0 .659-.187 1.361-.56 2.11 0 .277.149.508.449.696a.578.578 0 0 0 .326.09.912.912 0 0 0 .46-.158c.18-.11.353-.235.516-.37l.482-.415c.891-.809 1.579-1.212 2.065-1.212a.768.768 0 0 1 .551.201c.254.233.382.408.382.528a.867.867 0 0 1-.09.37c-.072.15-.15.296-.236.438l-.337.495-1.089 1.38a9.335 9.335 0 0 1-.718.663 5.561 5.561 0 0 1-.921.617l-.001-.002Zm20.304-5.007c.24 0 .359.202.359.607 0 .696-.487 1.598-1.46 2.705l-.64.651c-1.938 1.939-3.763 3.228-5.477 3.872-1.063.396-1.826.378-2.29-.056-.382-.367-.684-.958-.909-1.774l-.27-.977-2.39 1.47-1.381.785c-1.646.898-2.881 1.348-3.703 1.348-1.055 0-1.935-.408-2.637-1.224a3.957 3.957 0 0 1-1.011-2.683c0-1.002.401-1.896 1.201-2.683 1.145-1.123 2.951-2.152 5.421-3.087 2.334-.876 4.221-1.312 5.657-1.312.487 0 .73.24.73.719 0 .329-.064.575-.191.74-.126.165-.389.334-.785.506l-1.415.607c-2.096.876-3.629 1.784-4.601 2.727-.277.262-.415.516-.415.764s.198.37.595.37c.389 0 1.295-.418 2.716-1.256l.932-.55c1.445-.87 2.653-1.303 3.626-1.303.824 0 1.369.362 1.638 1.09l.191.594.18.528c.135.366.254.55.359.55.112 0 .269-.052.471-.157.227-.128.448-.267.663-.415l.763-.56 1.358-1.09c1.204-1.003 2.109-1.504 2.716-1.504l-.001-.002Zm10.169 2.402c0 .681.198 1.022.595 1.022.973 0 2.237-.659 3.794-1.976l.303-.258c.606-.403 1.096-.606 1.47-.606.382 0 .622.056.719.168.104.113.157.293.157.54 0 .554-.281 1.141-.842 1.762-.839 1.018-1.987 1.983-3.447 2.896-1.69 1.063-3.205 1.594-4.545 1.594-.936 0-1.523-.52-1.762-1.56a6.005 6.005 0 0 1-.145-.776c-.076-.599-.154-.93-.237-.998-.083-.068-.246-.06-.494.022a4.79 4.79 0 0 0-.863.394l-1.101.663-3.692 2.435c-.771.479-1.291.719-1.561.719-.269 0-.535-.056-.797-.169a2.58 2.58 0 0 1-.673-.426c-.403-.382-.606-.77-.606-1.167 0-2.267.494-4.25 1.481-5.949.659-1.144 1.466-1.939 2.424-2.38a3.603 3.603 0 0 1 1.571-.346c1.025 0 1.537.337 1.537 1.01 0 .41-.242 1.085-.729 2.02l-.337.663c-.239.456-.355.715-.347.774.044.224.145.337.302.337.173 0 .427-.128.764-.382l2.065-1.538 1.033-.717c1.189-.778 2.065-1.168 2.626-1.168.3 0 .572.12.82.36.456.433.684.812.684 1.133 0 .105-.011.233-.033.382l-.056.483-.046.527a4.24 4.24 0 0 0-.033.516l.001-.004Zm11.55 3.02c.149.201.224.478.224.83-.003.355-.117.7-.325.988a2.933 2.933 0 0 1-.842.785 4.3 4.3 0 0 1-2.39.685c-.861 0-1.472-.221-1.83-.662a1.37 1.37 0 0 1-.292-.876c0-.665.34-1.256 1.021-1.774.68-.517 1.493-.775 2.436-.775.95 0 1.616.266 1.998.797v.001Z"/>
</svg>
