<svg xmlns="http://www.w3.org/2000/svg" width="145" height="20" fill="none">
  <path fill="#111029" d="m21.114 14.83.022-.748c.015-.468.059-.98.131-1.538l.177-1.296.11-.835-1.681 1.78-1.264 1.23c-2.828 2.643-4.512 3.966-5.054 3.966-.799 0-1.637-.173-2.516-.517-.476-.19-.748-.388-.813-.593-.102-.256-.154-.604-.154-1.044l.044-1.23.11-1.11.131-1.066.122-.902c.074-.578.087-.867.044-.867l-4.088 5.021L3.15 18.84c-.564.512-1.186.769-1.868.769-.337 0-.615-.084-.835-.253a.762.762 0 0 1-.33-.626c0-.499.21-1.019.627-1.56L10.5 4.766l1.143-1.373C13.005 1.79 13.899.988 14.322.988c.595 0 1.158.15 1.693.45.477.263.748.52.813.768.029.095-.033.539-.187 1.329l-.384 2.076-.65 4.483c0 .666.078 1 .232 1 .497 0 1.457-.816 2.879-2.45l3.56-4.263c.784-.901 1.303-1.414 1.56-1.537.1-.042.21-.06.319-.055.155.002.31.02.46.055.18.037.355.085.528.142.183.059.359.129.528.209.169.08.319.165.45.252.286.19.425.348.417.473 0 .117-.029.378-.087.78l-.22 1.45-.957 6.591c-.022.608.04.989.187 1.143.154.153.377.231.67.231.535 0 1.311-.319 2.328-.956.69-.433 1.257-.648 1.703-.648.454 0 .681.216.681.648 0 .446-.241.989-.725 1.626-.696.922-1.736 1.758-3.12 2.505-1.165.623-2.27.934-3.317.934-1.714 0-2.572-1.131-2.572-3.395l.002.001Zm21.731-4.098c0 .396.337.594 1.011.594.498 0 1.15-.241 1.955-.725l.879-.484c.271-.153.505-.23.704-.23.205 0 .366.062.483.185.118.124.177.297.177.517 0 .22-.074.476-.22.768a5.49 5.49 0 0 1-.604.912 8.205 8.205 0 0 1-2.011 1.78c-.879.55-1.695.824-2.45.824-.799 0-1.436-.135-1.911-.407l-.43-.275c-.783.894-1.918 1.714-3.405 2.461-1.583.792-2.963 1.187-4.143 1.187-1.238 0-2.216-.488-2.934-1.461-.579-.792-.867-1.593-.867-2.407 0-1.171.626-2.289 1.878-3.351.923-.776 1.813-1.366 2.67-1.769.76-.36 1.541-.673 2.34-.934 1.473-.46 2.798-.692 3.978-.692.527 0 .996.103 1.406.308.418.197.725.398.923.603.468.462.703 1.052.703 1.769 0 .213-.022.378-.066.495a.951.951 0 0 0-.066.33v.002Zm-8.986 2.077-.012.032v.011c0 .316.07.52.21.615a1.339 1.339 0 0 0 1.066.165 8.004 8.004 0 0 0 1.066-.373 9.49 9.49 0 0 0 2.264-1.363 1.6 1.6 0 0 1-.177-.725c0-.527.231-1.055.693-1.582-.587 0-1.378.275-2.373.823-1.098.608-1.922 1.234-2.471 1.88-.176.22-.264.392-.264.515l-.002.002Zm25.268-3.065c.47 0 .704.194.704.582 0 .476-.286 1.044-.857 1.703a25.986 25.986 0 0 1-3.34 3.207c-2.088 1.67-3.952 2.505-5.593 2.505-1.178 0-2.146-.512-2.9-1.538-.783-1.07-1.175-2.505-1.175-4.307 0-2.366 1.154-4.98 3.46-7.844C50.89 2.23 52.27.993 53.568.34c.402-.205.71-.308.922-.308.22 0 .417.037.594.11.182.067.351.162.505.286.358.3.538.663.538 1.088 0 .425-.117.93-.35 1.516a10.12 10.12 0 0 1-1.022 1.857c-.945 1.398-2.223 2.738-3.834 4.02-.417.8-.626 1.758-.626 2.88 0 .505.161.98.484 1.428.33.447.692.67 1.087.67.543 0 1.579-.56 3.109-1.681l1.956-1.505c.799-.637 1.532-.956 2.198-.956h-.002Zm16.974-.363c.33 0 .494.169.494.505 0 .535-.351 1.289-1.055 2.264-.491.681-1.501 1.626-3.033 2.835-1.823 1.429-3.288 2.143-4.395 2.143-.834 0-1.465-.352-1.89-1.055-.256-.425-.465-1.048-.626-1.868l-.977.704c-2.688 1.86-4.695 2.79-6.02 2.79-1.106 0-1.993-.403-2.659-1.209-.586-.725-.879-1.592-.879-2.604 0-1.113.382-1.992 1.143-2.636 1.552-1.304 3.482-2.376 5.79-3.219.937-.344 1.531-.516 1.78-.516.233-.003.465.041.681.131.213.08.421.186.626.319.484.33.725.649.725.956 0 .249-.153.45-.461.604a4.64 4.64 0 0 1-.484.209l-.835.362c-.886.418-1.75.923-2.592 1.517-.601.512-.901.922-.901 1.23 0 .3.212.45.637.45.351 0 1.055-.312 2.11-.934l.934-.572c.666-.417 1.201-.798 1.603-1.142l.506-1.647c.622-1.963 1.315-3.585 2.076-4.868C69.746 1.544 71.1.251 72.464.251c.497 0 .894.092 1.186.275.527.33.791.696.791 1.099 0 .395-.073.816-.22 1.264a7.79 7.79 0 0 1-.582 1.329c-.234.44-.505.875-.813 1.307l-1.878 2.482-.835 1.175c-.425.915-.638 1.7-.638 2.352 0 .937.34 1.406 1.021 1.406.388 0 1.088-.406 2.099-1.22l1.296-1.099C74.5 10.08 75.1 9.7 75.692 9.48a1.18 1.18 0 0 1 .407-.099l.002.001Zm9.723 1.351c0 .396.337.594 1.011.594.498 0 1.15-.241 1.955-.725l.879-.484c.271-.153.505-.23.704-.23.204 0 .366.062.483.185.118.124.177.297.177.517 0 .22-.074.476-.22.768a5.49 5.49 0 0 1-.604.912 8.207 8.207 0 0 1-2.011 1.78c-.88.55-1.695.824-2.45.824-.8 0-1.436-.135-1.912-.407l-.428-.275c-.784.894-1.92 1.714-3.407 2.461-1.582.792-2.962 1.187-4.141 1.187-1.237 0-2.215-.488-2.934-1.461-.579-.792-.867-1.593-.867-2.407 0-1.171.626-2.289 1.879-3.351.922-.776 1.812-1.366 2.67-1.769.759-.36 1.54-.673 2.34-.934 1.472-.46 2.797-.692 3.977-.692.528 0 .996.103 1.406.308.418.197.725.398.923.603.468.462.703 1.052.703 1.769 0 .213-.022.378-.066.495a.951.951 0 0 0-.066.33l-.001.002Zm-8.986 2.077-.012.032v.011c0 .316.07.52.209.615a1.337 1.337 0 0 0 1.065.165 7.928 7.928 0 0 0 1.065-.373 9.49 9.49 0 0 0 2.264-1.363 1.601 1.601 0 0 1-.177-.725c0-.527.23-1.055.693-1.582-.586 0-1.377.275-2.372.823-1.1.608-1.923 1.234-2.473 1.88-.176.22-.264.392-.264.515l.002.002Zm26.454 1.34a5.532 5.532 0 0 1-1.121.44c-.417.11-.926.165-1.527.165-.594 0-1.245-.205-1.955-.615-1.076.945-2.048 1.677-2.911 2.197-1.517.908-2.553 1.363-3.11 1.363-.96 0-1.728-.158-2.307-.473-1.362-.768-2.044-2.273-2.044-4.515 0-1.319.363-2.552 1.088-3.702.52-.828 1.209-1.421 2.065-1.78.433-.183.843-.275 1.23-.275.32-.005.64.017.956.066.256.036.491.095.704.176.491.183.736.418.736.704 0 .338-.117.659-.351.966l-.615.748-.505.548c-.41.433-.662.744-.757.934a2.25 2.25 0 0 0-.22 1c0 .359.032.649.098.868a2.5 2.5 0 0 0 .264.582c.235.395.472.594.714.594.337 0 1.051-.498 2.142-1.494l.966-.89a2.545 2.545 0 0 1-.043-.495c0-.182.051-.406.153-.67.116-.29.256-.569.418-.835.183-.292.395-.586.638-.879.248-.292.512-.56.79-.802.623-.527 1.213-.791 1.769-.791.989 0 1.484.516 1.484 1.548 0 .645-.184 1.333-.549 2.066 0 .27.147.497.44.68.096.061.207.092.319.088a.894.894 0 0 0 .45-.154c.177-.108.346-.23.505-.362l.473-.406c.871-.791 1.545-1.187 2.021-1.187a.751.751 0 0 1 .539.198c.248.227.373.399.373.516a.83.83 0 0 1-.087.363 5.34 5.34 0 0 1-.231.428l-.33.484-1.067 1.352a9.05 9.05 0 0 1-.702.648 5.45 5.45 0 0 1-.901.604l-.002-.001Zm19.874-4.9c.235 0 .351.197.351.593 0 .682-.476 1.564-1.428 2.648l-.627.637c-1.897 1.898-3.683 3.16-5.361 3.79-1.04.388-1.787.37-2.241-.055-.374-.358-.67-.937-.89-1.736l-.264-.956-2.34 1.439-1.351.769c-1.611.878-2.82 1.318-3.625 1.318-1.033 0-1.894-.399-2.581-1.197a3.876 3.876 0 0 1-.989-2.626c0-.982.392-1.857 1.175-2.627 1.121-1.098 2.889-2.106 5.306-3.021 2.285-.857 4.131-1.285 5.538-1.285.476 0 .713.235.713.704 0 .322-.062.563-.186.725-.124.161-.381.326-.769.495l-1.385.593c-2.051.858-3.552 1.747-4.503 2.67-.272.257-.407.505-.407.748 0 .242.194.363.583.363.381 0 1.267-.41 2.659-1.23l.912-.54c1.414-.85 2.596-1.274 3.549-1.274.806 0 1.34.355 1.604 1.066l.186.582.176.517c.133.358.249.539.351.539.11 0 .264-.052.462-.154a8.18 8.18 0 0 0 .648-.406l.748-.55 1.329-1.066c1.178-.98 2.065-1.472 2.658-1.472l-.001-.001Zm9.954 2.351c0 .666.194 1 .582 1 .953 0 2.19-.645 3.714-1.934l.296-.252c.594-.395 1.073-.594 1.439-.594.374 0 .609.055.704.165.102.11.154.286.154.527 0 .543-.275 1.118-.824 1.726-.821.996-1.945 1.94-3.374 2.835-1.655 1.04-3.137 1.56-4.449 1.56-.916 0-1.491-.51-1.725-1.528a6.106 6.106 0 0 1-.142-.759c-.074-.586-.15-.911-.231-.977-.082-.066-.242-.059-.484.022-.294.1-.577.23-.845.385l-1.078.649-3.613 2.384c-.755.468-1.264.703-1.528.703s-.524-.055-.78-.165a2.531 2.531 0 0 1-.659-.417c-.395-.374-.593-.754-.593-1.143 0-2.218.483-4.16 1.45-5.822.645-1.12 1.435-1.897 2.372-2.329a3.528 3.528 0 0 1 1.538-.34c1.003 0 1.505.33 1.505.989 0 .402-.238 1.063-.714 1.977l-.33.65c-.234.445-.348.7-.34.757.044.22.142.33.296.33.169 0 .418-.125.748-.374l2.021-1.505 1.011-.702c1.164-.762 2.021-1.143 2.57-1.143.294 0 .56.117.803.351.446.425.67.795.67 1.11 0 .103-.012.228-.033.374l-.055.473-.045.516a4.06 4.06 0 0 0-.032.505l.001-.004Zm11.305 2.955c.146.197.22.469.22.813a1.674 1.674 0 0 1-.319.967c-.221.308-.501.57-.824.769a4.21 4.21 0 0 1-2.34.67c-.842 0-1.44-.216-1.791-.648a1.35 1.35 0 0 1-.285-.857c0-.651.333-1.23.999-1.736.666-.507 1.461-.76 2.385-.76.93 0 1.581.26 1.955.78v.002Z"/>
</svg>
