<svg xmlns="http://www.w3.org/2000/svg" width="116" height="16" fill="none">
  <path d="m16.891 11.864.018-.598c.012-.375.047-.785.105-1.231l.141-1.037.088-.668-1.345 1.424-1.011.984c-2.262 2.115-3.609 3.173-4.043 3.173-.639 0-1.31-.138-2.013-.413-.381-.152-.598-.311-.65-.475-.082-.205-.123-.483-.123-.835l.035-.984.088-.888.105-.853.097-.721c.059-.463.07-.694.035-.694l-3.27 4.017-2.628 3.006c-.451.41-.949.615-1.494.615-.27 0-.492-.067-.668-.202a.61.61 0 0 1-.264-.501c0-.399.167-.815.501-1.248L8.4 3.813l.914-1.099C10.404 1.432 11.119.79 11.459.79c.475 0 .926.12 1.354.36.381.211.598.416.65.615.023.076-.026.431-.149 1.063l-.308 1.661-.519 3.586c0 .533.062.8.185.8.398 0 1.166-.653 2.303-1.96l2.848-3.41c.627-.721 1.043-1.131 1.248-1.23a.593.593 0 0 1 .255-.044 1.75 1.75 0 0 1 .369.044 3.75 3.75 0 0 1 .422.114c.146.047.287.103.422.167s.255.132.36.202c.229.152.34.278.334.378 0 .094-.023.302-.07.624l-.176 1.16-.765 5.273c-.018.486.032.791.149.914.123.123.302.185.536.185.428 0 1.049-.255 1.863-.765.551-.346 1.005-.518 1.362-.518.363 0 .545.173.545.518 0 .357-.193.791-.58 1.301-.557.738-1.389 1.406-2.496 2.004-.932.498-1.816.747-2.654.747-1.371 0-2.057-.905-2.057-2.716zm17.385-3.278c0 .316.27.475.809.475.398 0 .92-.193 1.564-.58l.703-.387c.217-.123.404-.185.563-.185.164 0 .293.05.387.149s.141.237.141.413-.059.381-.176.615a4.397 4.397 0 0 1-.483.729 6.565 6.565 0 0 1-1.609 1.424c-.703.44-1.356.659-1.96.659-.639 0-1.149-.108-1.529-.325l-.343-.22c-.627.715-1.535 1.371-2.725 1.969-1.266.633-2.37.949-3.314.949-.99 0-1.773-.39-2.347-1.169-.463-.633-.694-1.274-.694-1.925 0-.937.501-1.831 1.503-2.681.738-.621 1.45-1.093 2.136-1.415a15.704 15.704 0 0 1 1.872-.747c1.178-.369 2.238-.554 3.182-.554.422 0 .797.082 1.125.246.334.158.58.319.738.483.375.369.563.841.563 1.415 0 .17-.018.302-.053.396s-.053.182-.053.264zm-7.189 1.661-.009.026v.009c0 .252.056.416.167.492a1.07 1.07 0 0 0 .853.132c.299-.082.583-.182.853-.299a7.592 7.592 0 0 0 1.811-1.09 1.28 1.28 0 0 1-.141-.58c0-.422.185-.844.554-1.266-.469 0-1.102.22-1.898.659-.879.486-1.538.987-1.977 1.503-.141.176-.211.314-.211.413zm20.215-2.452c.375 0 .563.155.563.466 0 .381-.229.835-.686 1.362a20.792 20.792 0 0 1-2.672 2.566c-1.67 1.336-3.161 2.004-4.474 2.004-.943 0-1.717-.41-2.32-1.231-.627-.855-.94-2.004-.94-3.445 0-1.893.923-3.984 2.768-6.275C40.712 1.783 41.816.793 42.854.271c.322-.164.568-.246.738-.246.176 0 .334.029.475.088.146.053.281.129.404.229.287.24.431.53.431.87s-.094.744-.281 1.213a8.1 8.1 0 0 1-.817 1.485c-.756 1.119-1.778 2.191-3.067 3.217-.334.639-.501 1.406-.501 2.303 0 .404.129.785.387 1.143.264.357.554.536.87.536.434 0 1.263-.448 2.487-1.345l1.565-1.204c.639-.51 1.225-.765 1.758-.765zm13.579-.29c.264 0 .395.135.395.404 0 .428-.281 1.031-.844 1.811-.393.545-1.201 1.301-2.426 2.268-1.459 1.143-2.631 1.714-3.516 1.714-.668 0-1.172-.281-1.512-.844-.205-.34-.372-.838-.501-1.494l-.782.563c-2.15 1.488-3.756 2.232-4.816 2.232-.885 0-1.594-.322-2.127-.967-.469-.58-.703-1.274-.703-2.083 0-.891.305-1.594.914-2.109 1.242-1.043 2.786-1.901 4.632-2.575.75-.275 1.225-.413 1.424-.413a1.37 1.37 0 0 1 .545.105c.17.064.337.149.501.255.387.264.58.519.58.765 0 .199-.123.36-.369.483a3.711 3.711 0 0 1-.387.167l-.668.29c-.709.334-1.4.738-2.074 1.213-.481.41-.721.738-.721.984 0 .24.17.36.51.36.281 0 .844-.249 1.688-.747l.747-.457c.533-.334.961-.639 1.283-.914l.404-1.318c.498-1.57 1.052-2.868 1.661-3.894C55.797 1.235 56.881.201 57.971.201c.398 0 .715.073.949.22.422.264.633.557.633.879 0 .316-.059.653-.176 1.011a6.24 6.24 0 0 1-.466 1.063c-.187.352-.404.7-.65 1.046l-1.503 1.986-.668.94c-.34.732-.51 1.359-.51 1.881 0 .75.272 1.125.817 1.125.31 0 .87-.325 1.679-.976l1.037-.879c.486-.434.967-.738 1.441-.914a.944.944 0 0 1 .325-.079zm7.778 1.081c0 .316.27.475.809.475.398 0 .92-.193 1.564-.58l.703-.387c.217-.123.404-.185.563-.185.164 0 .293.05.387.149s.141.237.141.413-.059.381-.176.615a4.397 4.397 0 0 1-.483.729 6.565 6.565 0 0 1-1.609 1.424c-.703.44-1.356.659-1.96.659-.639 0-1.148-.108-1.529-.325l-.343-.22c-.627.715-1.535 1.371-2.725 1.969-1.266.633-2.37.949-3.313.949-.99 0-1.772-.39-2.347-1.169-.463-.633-.694-1.274-.694-1.925 0-.937.501-1.831 1.503-2.681.738-.621 1.45-1.093 2.136-1.415a15.704 15.704 0 0 1 1.872-.747c1.178-.369 2.238-.554 3.182-.554.422 0 .797.082 1.125.246.334.158.58.319.738.483.375.369.563.841.563 1.415 0 .17-.018.302-.053.396s-.053.182-.053.264zm-7.189 1.661-.009.026v.009c0 .252.056.416.167.492a1.07 1.07 0 0 0 .852.132c.299-.082.583-.182.852-.299a7.592 7.592 0 0 0 1.811-1.09 1.28 1.28 0 0 1-.141-.58c0-.422.184-.844.554-1.266-.469 0-1.102.22-1.898.659-.879.486-1.538.987-1.978 1.503-.141.176-.211.314-.211.413zm21.164 1.072a4.448 4.448 0 0 1-.897.352c-.334.088-.741.132-1.222.132-.475 0-.996-.164-1.564-.492-.861.756-1.638 1.342-2.329 1.758-1.213.726-2.042 1.09-2.487 1.09-.768 0-1.383-.126-1.846-.378-1.09-.615-1.635-1.819-1.635-3.612 0-1.055.29-2.042.87-2.962.416-.662.967-1.137 1.652-1.424.346-.146.674-.22.984-.22a4.54 4.54 0 0 1 .765.053c.205.029.393.076.563.141.393.146.589.334.589.563 0 .27-.094.527-.281.773l-.492.598-.404.439c-.328.346-.53.595-.606.747a1.8 1.8 0 0 0-.176.8c0 .287.026.519.079.694.053.17.123.325.211.466.188.316.378.475.571.475.27 0 .841-.398 1.714-1.195l.773-.712a2.03 2.03 0 0 1-.035-.396c0-.146.041-.325.123-.536a4.44 4.44 0 0 1 .334-.668c.146-.234.316-.469.51-.703.199-.234.41-.448.633-.642.498-.422.97-.633 1.415-.633.791 0 1.187.413 1.187 1.239 0 .516-.147 1.066-.439 1.652 0 .217.117.398.352.545a.45.45 0 0 0 .255.07.715.715 0 0 0 .36-.123 3.47 3.47 0 0 0 .404-.29l.378-.325c.697-.633 1.236-.949 1.617-.949a.6.6 0 0 1 .431.158c.199.182.299.319.299.413a.68.68 0 0 1-.07.29 4.22 4.22 0 0 1-.185.343l-.264.387-.853 1.081a7.27 7.27 0 0 1-.562.519 4.354 4.354 0 0 1-.721.483zm15.899-3.92c.188 0 .281.158.281.475 0 .545-.381 1.251-1.143 2.118l-.501.51c-1.518 1.518-2.947 2.528-4.289 3.032-.832.31-1.43.296-1.793-.044-.299-.287-.536-.75-.712-1.389l-.211-.765-1.872 1.151-1.081.615c-1.289.703-2.256 1.055-2.9 1.055-.826 0-1.515-.319-2.065-.958a3.099 3.099 0 0 1-.791-2.101c0-.785.314-1.485.94-2.101.897-.879 2.311-1.685 4.245-2.417 1.828-.686 3.305-1.028 4.43-1.028.381 0 .571.188.571.563 0 .258-.05.451-.149.58s-.305.261-.615.396l-1.108.475c-1.641.686-2.842 1.397-3.603 2.136-.217.205-.325.404-.325.598s.155.29.466.29c.305 0 1.014-.328 2.127-.984l.73-.431c1.131-.68 2.077-1.02 2.839-1.02.645 0 1.072.284 1.283.853l.149.466.141.413c.106.287.199.431.281.431.088 0 .211-.041.369-.123a6.62 6.62 0 0 0 .519-.325l.598-.439 1.063-.853c.943-.785 1.652-1.178 2.127-1.178zm7.963 1.881c0 .533.155.8.466.8.762 0 1.752-.516 2.971-1.547l.237-.202c.475-.316.858-.475 1.151-.475.299 0 .487.044.563.132.082.088.123.229.123.422 0 .434-.22.894-.659 1.38-.657.797-1.556 1.553-2.699 2.268-1.324.832-2.51 1.248-3.559 1.248-.733 0-1.193-.407-1.38-1.222a4.84 4.84 0 0 1-.114-.607c-.059-.469-.12-.729-.185-.782s-.193-.047-.387.018a3.754 3.754 0 0 0-.676.308l-.862.519-2.891 1.907c-.604.375-1.011.563-1.222.563s-.419-.044-.624-.132a2.02 2.02 0 0 1-.527-.334c-.316-.299-.475-.603-.475-.914 0-1.775.387-3.328 1.16-4.658.516-.896 1.148-1.518 1.898-1.863a2.82 2.82 0 0 1 1.23-.272c.803 0 1.204.264 1.204.791 0 .322-.19.85-.571 1.582l-.264.519c-.187.357-.278.56-.272.606.035.176.114.264.237.264.135 0 .334-.1.598-.299l1.617-1.204.809-.562c.931-.609 1.617-.914 2.056-.914.235 0 .448.094.642.281.357.34.536.636.536.888 0 .082-.009.182-.026.299l-.044.378-.036.413a3.375 3.375 0 0 0-.026.404zm9.044 2.364c.117.158.176.375.176.65a1.34 1.34 0 0 1-.255.774 2.3 2.3 0 0 1-.659.615 3.368 3.368 0 0 1-1.872.536c-.674 0-1.152-.173-1.433-.518a1.076 1.076 0 0 1-.228-.686c0-.521.266-.984.799-1.389s1.169-.607 1.908-.607c.744 0 1.265.208 1.564.624z" fill="#111029"/>
</svg>
